<?xml version="1.0" standalone="no"?>
<!DOCTYPE svg PUBLIC "-//W3C//DTD SVG 20010904//EN"
 "http://www.w3.org/TR/2001/REC-SVG-20010904/DTD/svg10.dtd">
<svg version="1.0" xmlns="http://www.w3.org/2000/svg"
 width="680.000000pt" height="327.000000pt" viewBox="0 0 680.000000 327.000000"
 preserveAspectRatio="xMidYMid meet">

<g transform="translate(0.000000,327.000000) scale(0.100000,-0.100000)"
fill="#000000" stroke="none">
<path d="M300 2715 l0 -525 1130 0 1130 0 0 525 0 525 -1130 0 -1130 0 0 -525z
m1113 405 c4 -16 14 -20 48 -20 59 0 179 -59 217 -107 49 -63 65 -104 70 -179
4 -61 1 -80 -20 -125 -31 -68 -69 -113 -119 -141 -28 -16 -38 -27 -34 -39 6
-17 -14 -27 -87 -43 -24 -6 -28 -11 -28 -41 0 -31 3 -35 25 -35 20 0 25 -5 25
-25 l0 -25 100 0 100 0 0 -45 0 -45 -285 0 -285 0 0 45 0 45 100 0 100 0 0 25
c0 20 5 25 25 25 22 0 25 4 25 34 0 34 -13 46 -49 46 -10 0 -50 16 -89 36
-200 99 -251 342 -106 503 55 61 109 95 184 115 73 19 77 19 83 -4z"/>
<path d="M3454 2556 c-43 -19 -64 -53 -64 -102 0 -55 20 -77 105 -122 67 -35
70 -39 73 -76 7 -82 -87 -118 -149 -57 l-29 29 -6 -25 c-9 -35 15 -55 75 -61
96 -9 161 43 161 127 0 57 -16 76 -110 123 -63 32 -65 34 -68 75 -2 33 1 44
20 57 33 24 75 20 102 -9 l23 -25 11 26 c11 23 10 26 -23 40 -42 17 -80 17
-121 0z"/>
<path d="M3809 2554 c-89 -27 -148 -124 -136 -226 15 -121 95 -189 221 -187
70 1 120 20 124 48 l3 21 -43 -22 c-85 -45 -181 -20 -221 57 -28 55 -29 168
-1 216 47 80 145 104 219 54 20 -15 39 -25 40 -23 2 2 5 14 7 28 3 21 -3 26
-37 36 -53 17 -120 16 -176 -2z"/>
<path d="M5286 2539 c-8 -19 -50 -114 -94 -211 -77 -173 -79 -178 -56 -178 14
0 26 6 29 13 40 126 46 135 86 142 21 4 57 4 78 0 38 -6 40 -9 67 -81 27 -71
30 -74 61 -74 l32 0 -35 83 c-20 45 -58 136 -86 202 -27 66 -54 124 -59 129
-5 6 -14 -4 -23 -25z m34 -121 c12 -29 24 -59 27 -65 4 -10 -11 -13 -55 -13
l-61 0 27 65 c15 36 30 65 33 65 4 0 16 -24 29 -52z"/>
<path d="M3105 2355 l0 -205 108 0 c88 0 107 3 107 15 0 12 -16 15 -80 15
l-80 0 0 86 0 85 73 -2 c60 -2 73 0 75 14 3 15 -7 17 -73 17 l-76 0 3 73 3 72
78 -3 c72 -2 77 -1 77 18 0 19 -6 20 -107 20 l-108 0 0 -205z"/>
<path d="M4100 2408 c0 -169 9 -202 63 -242 42 -31 169 -30 213 1 53 38 64 76
71 243 6 149 6 150 -15 150 -21 0 -22 -3 -22 -140 0 -159 -13 -211 -61 -235
-38 -20 -104 -19 -140 2 -46 27 -54 62 -53 226 l1 147 -28 0 -29 0 0 -152z"/>
<path d="M4560 2355 l0 -205 110 0 c91 0 110 3 110 15 0 12 -16 15 -80 15
l-80 0 0 86 0 86 70 -4 c62 -3 70 -2 70 14 0 16 -10 18 -70 18 l-70 0 0 76 0
76 77 -4 c67 -3 78 -1 81 15 3 15 -7 17 -107 17 l-111 0 0 -205z"/>
<path d="M4860 2355 l0 -205 110 0 c91 0 110 3 110 15 0 12 -16 15 -80 15
l-80 0 0 190 0 190 -30 0 -30 0 0 -205z"/>
<path d="M290 1612 c0 -543 1 -556 52 -655 27 -53 93 -123 145 -154 71 -41
130 -54 288 -63 169 -10 287 -37 408 -94 72 -33 187 -112 187 -128 0 -4 5 -8
10 -8 7 0 9 269 8 803 l-3 802 -547 3 -548 2 0 -508z m495 101 c49 -19 51 -19
100 0 75 28 178 33 270 12 42 -9 90 -15 106 -13 l29 5 0 -262 c0 -144 -3 -296
-6 -338 l-7 -77 -442 0 -442 0 -7 77 c-3 42 -6 194 -6 338 l0 261 33 -4 c17
-2 59 4 92 12 78 20 213 15 280 -11z"/>
<path d="M1460 1314 l0 -806 47 42 c134 118 334 183 604 199 134 7 152 11 213
39 113 53 197 158 225 283 6 27 11 244 11 547 l0 502 -550 0 -550 0 0 -806z
m620 451 l0 -64 47 -21 47 -21 48 48 48 47 50 -49 c28 -27 50 -54 50 -59 0 -6
-20 -31 -44 -56 l-43 -45 19 -42 19 -43 64 0 65 0 0 -75 0 -75 -65 0 -64 0
-21 -47 -21 -47 48 -48 48 -48 -53 -52 -52 -53 -48 48 -48 48 -47 -21 -47 -21
0 -64 0 -65 -75 0 -75 0 0 70 0 70 -37 19 -38 20 -52 -52 -53 -51 -50 49 c-27
27 -50 54 -50 59 0 6 23 33 50 61 l51 51 -16 37 -15 37 -75 0 -75 0 0 75 0 75
78 0 77 0 12 38 c12 37 12 37 -43 92 l-54 56 53 52 52 52 51 -51 51 -51 42 21
41 21 0 64 c0 34 3 66 7 69 3 4 37 7 75 7 l68 0 0 -65z"/>
<path d="M1951 1580 c-75 -32 -131 -115 -131 -196 0 -58 42 -136 92 -170 35
-25 51 -29 109 -29 59 0 73 4 110 30 53 37 82 93 87 164 7 111 -74 202 -185
208 -32 1 -69 -2 -82 -7z m136 -86 c42 -26 57 -65 54 -132 -2 -35 -60 -92
-101 -98 -49 -8 -105 17 -130 58 -69 114 64 244 177 172z"/>
<path d="M1982 1453 c-7 -3 -19 -18 -27 -33 -24 -46 1 -91 57 -105 22 -6 33
-1 59 24 25 25 30 37 25 59 -12 49 -65 75 -114 55z"/>
<path d="M4843 1926 c-68 -65 -53 -76 32 -21 58 37 64 45 40 65 -12 10 -24 3
-72 -44z"/>
<path d="M3173 1842 l-63 -3 0 -204 0 -205 30 0 30 0 -6 88 -7 87 74 12 c65
10 78 16 106 47 26 28 33 45 33 75 0 81 -55 110 -197 103z m100 -33 c30 -16
37 -28 37 -71 0 -58 -35 -91 -96 -92 l-49 -1 -3 88 -3 87 46 0 c26 0 56 -5 68
-11z"/>
<path d="M3536 1835 c-86 -30 -131 -110 -124 -218 5 -83 37 -135 105 -168 65
-32 169 -33 230 -1 152 79 144 312 -12 383 -48 22 -143 24 -199 4z m183 -34
c52 -37 66 -67 69 -154 4 -95 -13 -137 -68 -174 -66 -46 -180 -23 -221 44 -45
72 -33 219 21 268 50 45 148 53 199 16z"/>
<path d="M5115 1831 c-111 -50 -153 -186 -94 -303 43 -85 155 -125 262 -94 44
13 57 21 57 36 0 25 -2 25 -42 0 -44 -26 -122 -27 -165 0 -48 29 -73 86 -73
165 0 78 16 122 58 157 55 46 147 43 204 -9 16 -14 18 -15 18 0 0 8 2 22 5 29
14 37 -160 51 -230 19z"/>
<path d="M5430 1693 c0 -87 -3 -182 -7 -211 -6 -52 -5 -54 17 -50 l24 3 -3
153 c-1 83 1 152 6 151 7 -1 169 -172 263 -279 l39 -45 1 151 c0 83 3 179 6
213 6 57 6 61 -14 61 -21 0 -22 -5 -24 -152 l-3 -152 -145 157 c-80 86 -148
157 -152 157 -5 0 -8 -71 -8 -157z"/>
<path d="M6150 1837 c-110 -35 -163 -187 -105 -303 30 -59 73 -91 146 -105 63
-13 155 4 173 33 17 27 1 31 -40 9 -53 -28 -121 -28 -164 2 -54 36 -75 81 -75
162 0 121 53 187 154 188 32 1 59 -6 83 -21 45 -28 48 -27 48 3 0 19 -7 26
-37 34 -48 14 -137 12 -183 -2z"/>
<path d="M6551 1828 c-5 -13 -44 -99 -86 -193 -95 -210 -94 -208 -65 -203 18
2 28 18 49 78 l27 75 76 3 76 3 30 -78 c28 -72 33 -78 61 -81 17 -2 31 -1 31
2 0 3 -33 83 -73 178 -40 95 -79 188 -86 206 -16 38 -28 41 -40 10z m37 -140
l31 -68 -64 0 -64 0 31 70 c17 39 32 69 33 68 2 -2 17 -33 33 -70z"/>
<path d="M3935 1635 l0 -205 108 0 c97 0 107 2 107 18 0 17 -7 18 -80 14 l-80
-5 0 192 0 191 -27 0 -28 0 0 -205z"/>
<path d="M4230 1635 l0 -205 30 0 30 0 0 205 0 205 -30 0 -30 0 0 -205z"/>
<path d="M4354 1823 c2 -14 13 -16 64 -14 l62 2 0 -190 0 -191 30 0 30 0 0
191 0 191 60 -4 c53 -4 60 -2 60 14 0 17 -12 18 -154 18 -139 0 -154 -2 -152
-17z"/>
<path d="M4730 1635 l0 -205 105 0 c94 0 105 2 105 18 0 15 -9 17 -80 14 l-80
-4 0 86 0 86 75 0 c68 0 75 2 75 20 0 18 -5 19 -75 13 l-75 -6 0 64 c0 35 4
70 9 77 6 10 28 13 80 10 62 -3 71 -1 71 15 0 15 -12 17 -105 17 l-105 0 0
-205z"/>
<path d="M5885 1635 l0 -205 27 0 27 0 3 205 3 205 -30 0 -30 0 0 -205z"/>
<path d="M3120 1055 c0 -49 -3 -146 -6 -215 -7 -124 -7 -126 15 -126 21 0 21
3 21 155 l0 155 51 -49 c27 -28 94 -98 147 -157 53 -60 100 -108 104 -108 4 0
8 94 8 210 0 204 -1 210 -20 210 -20 0 -20 -4 -14 -157 l6 -158 -74 75 c-40
41 -111 116 -156 165 l-82 90 0 -90z"/>
<path d="M3612 935 c-51 -113 -92 -209 -92 -213 0 -4 9 -8 19 -8 15 0 26 18
48 76 l28 75 76 3 76 3 32 -78 c29 -73 33 -78 61 -78 17 0 30 2 30 4 0 8 -172
407 -179 414 -4 4 -49 -85 -99 -198z m138 -22 c0 -9 -18 -13 -60 -13 l-60 0
15 35 c8 19 22 52 32 73 l16 37 28 -60 c15 -33 28 -66 29 -72z"/>
<path d="M4057 1126 c-89 -24 -147 -105 -147 -206 0 -127 84 -210 212 -210 59
0 128 16 128 30 0 4 3 16 6 25 5 12 -5 10 -42 -10 -58 -31 -128 -30 -172 2
-42 30 -72 98 -72 163 0 146 119 231 234 167 44 -25 45 -25 52 -5 8 28 -3 36
-65 48 -66 12 -74 12 -134 -4z"/>
<path d="M4635 1131 c-104 -27 -165 -105 -165 -211 0 -87 43 -159 115 -191 54
-25 166 -25 220 0 154 69 154 314 0 382 -48 21 -129 31 -170 20z m153 -48 c49
-37 67 -80 66 -163 0 -127 -50 -185 -159 -185 -93 0 -143 45 -160 142 -15 94
19 182 85 216 45 24 130 19 168 -10z"/>
<path d="M5010 1135 c0 -6 -2 -102 -5 -215 -6 -202 -5 -206 15 -206 19 0 20 6
20 155 l0 155 41 -39 c22 -22 88 -93 146 -157 59 -65 110 -118 114 -118 4 0 7
94 7 210 1 201 0 210 -19 210 -18 0 -19 -9 -19 -152 l0 -153 -73 75 c-40 41
-107 113 -150 160 -42 47 -77 80 -77 75z"/>
<path d="M5502 936 c-51 -112 -92 -208 -92 -213 0 -5 9 -9 20 -9 15 0 25 17
47 78 l28 78 77 0 77 0 29 -77 c28 -72 31 -76 61 -77 17 -1 31 0 31 1 0 7
-174 410 -180 416 -4 4 -48 -84 -98 -197z m138 -23 c0 -9 -18 -13 -60 -13 -67
0 -66 -8 -20 95 l23 50 28 -60 c15 -33 28 -66 29 -72z"/>
<path d="M4339 1126 c0 -3 -1 -97 -1 -208 l-1 -202 27 0 27 0 0 205 0 204 -25
3 c-15 2 -26 1 -27 -2z"/>
<path d="M5849 1126 c0 -3 0 -97 -1 -207 l0 -202 105 -1 c93 -1 107 1 111 17
4 15 -5 17 -80 17 l-85 0 2 188 2 187 -27 3 c-14 2 -26 1 -27 -2z"/>
<path d="M2688 926 c-66 -74 -181 -154 -265 -186 -32 -12 -93 -28 -136 -36
-43 -8 -83 -16 -88 -20 -5 -3 -9 -63 -9 -133 l0 -128 -92 -36 c-183 -69 -369
-105 -593 -114 -289 -11 -549 33 -812 138 l-33 13 0 128 0 127 -37 10 c-21 5
-58 13 -83 16 -124 20 -270 103 -370 212 -33 36 -60 62 -60 56 0 -24 53 -163
85 -221 20 -35 34 -67 31 -69 -5 -5 -144 23 -175 35 -24 9 45 -83 99 -131 65
-58 117 -88 213 -122 l77 -28 0 -57 c0 -57 1 -59 52 -105 133 -119 396 -205
723 -235 473 -44 987 68 1162 251 27 29 32 43 35 93 l3 58 55 17 c73 23 169
74 221 119 44 38 122 132 115 139 -2 2 -32 -3 -66 -12 -34 -9 -75 -15 -91 -13
l-29 3 27 40 c21 31 109 255 100 255 -1 0 -28 -29 -59 -64z m-453 -546 c3 -5
1 -10 -4 -10 -19 0 -12 -17 9 -23 45 -12 34 -62 -11 -55 l-24 5 25 10 25 11
-27 10 c-34 14 -43 29 -28 47 14 17 26 19 35 5z m-38 -115 c-11 -26 -49 -14
-70 22 -10 18 -15 38 -11 44 4 8 14 -1 26 -25 10 -20 23 -36 28 -36 14 0 12
16 -5 49 -8 16 -11 32 -7 35 10 11 46 -70 39 -89z m-1506 65 c26 -15 24 -29
-3 -23 -21 4 -22 3 -6 -10 19 -15 14 -29 -7 -21 -7 3 -16 1 -19 -4 -3 -6 1
-12 9 -16 16 -6 21 -26 7 -26 -5 0 -17 6 -27 14 -19 13 -19 15 -1 55 21 46 20
45 47 31z m1432 -80 c9 0 17 -4 17 -10 0 -5 -4 -10 -9 -10 -5 0 -16 -2 -23 -5
-17 -7 -52 71 -41 89 4 6 14 -5 23 -26 9 -24 22 -38 33 -38z m-1325 31 c3 -9
-2 -11 -18 -6 -19 6 -21 5 -11 -13 17 -33 14 -62 -8 -62 -21 0 -45 23 -34 33
3 4 12 2 20 -4 17 -15 19 11 2 28 -7 7 -9 19 -5 28 7 19 47 17 54 -4z m1282
-63 c0 -4 -13 -5 -30 -2 -22 5 -31 2 -36 -10 -12 -32 -24 -15 -18 27 10 74 12
75 49 32 19 -22 34 -43 35 -47z m-1199 42 c18 -14 20 -19 9 -20 -9 0 -21 5
-28 12 -8 8 -15 8 -27 -2 -31 -26 -8 -68 30 -54 8 4 15 1 15 -5 0 -18 -29 -25
-56 -13 -36 17 -32 80 6 95 24 9 26 8 51 -13z m1079 0 c0 -5 -8 -10 -17 -10
-13 -1 -10 -5 10 -16 30 -16 35 -35 12 -54 -16 -14 -50 -6 -40 9 3 6 12 8 20
4 26 -9 16 13 -10 25 -24 11 -32 31 -18 45 10 11 43 8 43 -3z m-1030 -12 c0
-28 -22 -88 -31 -88 -6 0 -8 8 -5 18 2 9 7 32 11 50 6 31 25 46 25 20z m54 -4
c23 -9 20 -26 -4 -19 -11 4 -20 2 -20 -4 0 -6 7 -11 15 -11 23 0 18 -17 -7
-24 l-23 -7 23 -9 c31 -13 28 -20 -8 -20 -30 0 -31 1 -25 38 11 66 14 69 49
56z m876 -4 c0 -5 -8 -10 -17 -11 -15 0 -14 -3 5 -16 12 -9 22 -26 22 -39 0
-19 -5 -24 -25 -24 -14 0 -25 5 -25 10 0 6 7 10 15 10 21 0 19 9 -7 29 -13 11
-19 24 -15 34 7 18 47 24 47 7z m-818 -25 c14 -30 28 -33 28 -5 0 11 5 20 11
20 8 0 9 -11 5 -31 -3 -17 -6 -40 -6 -50 0 -29 -18 -23 -37 14 l-18 32 -3 -27
c-2 -16 -8 -28 -14 -28 -7 0 -8 14 -4 38 3 20 6 43 6 50 0 21 20 13 32 -13z
m753 0 c3 -14 7 -36 10 -50 3 -14 1 -25 -5 -25 -5 0 -12 11 -15 25 -3 14 -7
36 -10 50 -3 14 -1 25 5 25 5 0 12 -11 15 -25z m-645 -6 c0 -5 -4 -9 -10 -9
-5 0 -10 -16 -10 -35 0 -19 -4 -35 -10 -35 -5 0 -10 15 -10 34 0 19 -3 41 -6
49 -4 11 1 13 20 10 14 -3 26 -9 26 -14z m590 -6 c0 42 17 32 23 -15 8 -57 0
-65 -33 -33 l-27 26 4 -25 c3 -14 1 -26 -5 -26 -13 0 -26 75 -16 91 5 9 14 3
31 -17 l23 -29 0 28z m-564 -30 c-6 -45 -12 -61 -20 -52 -8 8 7 99 17 99 6 0
7 -18 3 -47z m453 3 c13 -54 13 -56 2 -56 -5 0 -13 10 -17 22 l-7 23 -8 -23
c-11 -28 -23 -28 -37 1 l-11 22 0 -22 c-1 -12 -5 -25 -11 -28 -6 -4 -10 13
-10 44 0 58 21 71 38 24 10 -29 11 -28 27 22 8 28 23 15 34 -29z m35 22 c9
-36 7 -78 -4 -78 -5 0 -10 15 -10 34 0 19 -3 41 -6 50 -3 9 -2 16 4 16 5 0 12
-10 16 -22z m-401 -35 c17 -56 14 -63 -13 -38 -16 15 -22 16 -35 5 -9 -7 -18
-10 -22 -7 -10 10 28 87 43 87 7 0 20 -21 27 -47z m87 27 c0 -11 7 -20 15 -20
8 0 15 9 15 20 0 11 5 20 10 20 6 0 10 -22 10 -50 0 -27 -4 -50 -10 -50 -5 0
-10 9 -10 20 0 11 -7 20 -15 20 -8 0 -15 -9 -15 -20 0 -11 -4 -20 -10 -20 -5
0 -10 23 -10 50 0 28 5 50 10 50 6 0 10 -9 10 -20z m148 8 c7 -7 12 -24 12
-38 0 -53 -57 -69 -86 -25 -15 23 -15 27 0 50 18 27 54 33 74 13z"/>
<path d="M1231 164 c0 -11 3 -14 6 -6 3 7 2 16 -1 19 -3 4 -6 -2 -5 -13z"/>
<path d="M1440 175 c-10 -12 -10 -18 0 -30 25 -30 67 -7 49 27 -12 22 -32 23
-49 3z"/>
</g>
</svg>
